<svg xmlns="http://www.w3.org/2000/svg" xmlns:xlink="http://www.w3.org/1999/xlink" width="500" zoomAndPan="magnify" viewBox="0 0 375 374.999991" height="500" preserveAspectRatio="xMidYMid meet" version="1.0"><defs><clipPath id="567c229a34"><path d="M 11 72 L 364 72 L 364 304 L 11 304 Z M 11 72 " clip-rule="nonzero"/></clipPath><clipPath id="2b264c3bc2"><path d="M 26.507812 72.117188 L 363.808594 97.46875 L 348.347656 303.140625 L 11.050781 277.789062 Z M 26.507812 72.117188 " clip-rule="nonzero"/></clipPath><clipPath id="6b714a89a6"><path d="M 7 17 L 287 17 L 287 213 L 7 213 Z M 7 17 " clip-rule="nonzero"/></clipPath><clipPath id="4dc18b40ab"><path d="M 15.507812 0.117188 L 352.808594 25.46875 L 337.347656 231.140625 L 0.0507812 205.789062 Z M 15.507812 0.117188 " clip-rule="nonzero"/></clipPath><clipPath id="e8622cd70b"><path d="M 337.488281 230.878906 L 0.1875 205.527344 L 15.644531 -0.140625 L 352.945312 25.207031 Z M 337.488281 230.878906 " clip-rule="nonzero"/></clipPath><clipPath id="1d616dbe4e"><path d="M 66 18 L 346 18 L 346 214 L 66 214 Z M 66 18 " clip-rule="nonzero"/></clipPath><clipPath id="15912173f5"><path d="M 15.507812 0.117188 L 352.808594 25.46875 L 337.347656 231.140625 L 0.0507812 205.789062 Z M 15.507812 0.117188 " clip-rule="nonzero"/></clipPath><clipPath id="16f19e64bb"><path d="M 337.488281 230.878906 L 0.1875 205.527344 L 15.644531 -0.140625 L 352.945312 25.207031 Z M 337.488281 230.878906 " clip-rule="nonzero"/></clipPath><clipPath id="9056dd9bcd"><rect x="0" width="353" y="0" height="232"/></clipPath></defs><g clip-path="url(#567c229a34)"><g clip-path="url(#2b264c3bc2)"><g transform="matrix(1, 0, 0, 1, 11, 72)"><g clip-path="url(#9056dd9bcd)"><g clip-path="url(#6b714a89a6)"><g clip-path="url(#4dc18b40ab)"><g clip-path="url(#e8622cd70b)"><path fill="#ffffff" d="M 97.355469 212.726562 C 129.769531 215.160156 153.171875 200.859375 173.679688 182.175781 L 175.953125 180.054688 C 181.933594 174.46875 187.546875 168.679688 192.730469 163.246094 L 194.570312 161.316406 C 195.390625 160.453125 196.210938 159.59375 197.027344 158.730469 C 222.65625 131.710938 246.863281 106.1875 286.441406 106.429688 L 286.59375 82 C 236.429688 81.691406 206.074219 113.6875 179.300781 141.917969 C 154.375 168.195312 132.84375 190.894531 99.1875 188.363281 C 58.980469 185.34375 28.730469 150.175781 31.75 109.96875 C 34.773438 69.765625 69.941406 39.515625 110.144531 42.535156 C 125.160156 43.664062 139.269531 49.460938 150.683594 58.699219 C 156.230469 52.878906 161.960938 46.988281 167.996094 41.347656 C 152.445312 28.085938 132.867188 19.746094 111.976562 18.175781 C 58.339844 14.144531 11.421875 54.5 7.390625 108.136719 C 3.359375 161.777344 43.71875 208.695312 97.355469 212.726562 " fill-opacity="1" fill-rule="nonzero"/></g></g></g><g clip-path="url(#1d616dbe4e)"><g clip-path="url(#15912173f5)"><g clip-path="url(#16f19e64bb)"><path fill="#ffffff" d="M 66.394531 149.078125 C 116.5625 149.386719 146.914062 117.390625 173.6875 89.160156 C 198.617188 62.878906 220.144531 40.183594 253.804688 42.714844 C 294.007812 45.734375 324.257812 80.902344 321.238281 121.109375 C 318.214844 161.3125 283.050781 191.5625 242.84375 188.542969 C 227.828125 187.414062 213.71875 181.617188 202.304688 172.378906 C 196.753906 178.199219 191.027344 184.085938 184.988281 189.726562 C 200.539062 202.988281 220.117188 211.332031 241.011719 212.902344 C 294.648438 216.933594 341.566406 176.578125 345.597656 122.941406 C 349.628906 69.300781 309.273438 22.382812 255.632812 18.351562 C 210.402344 14.953125 182.730469 44.132812 155.960938 72.347656 C 130.332031 99.367188 106.125 124.890625 66.546875 124.648438 L 66.394531 149.078125 " fill-opacity="1" fill-rule="nonzero"/></g></g></g></g></g></g></g></svg>